<?xml version="1.0" encoding="UTF-8"?>
<svg width="64px" height="64px" viewBox="0 0 56 51" version="1.1" xmlns="http://www.w3.org/2000/svg" xmlns:xlink="http://www.w3.org/1999/xlink">
    <!-- Generator: Sketch 46.2 (44496) - http://www.bohemiancoding.com/sketch -->
    <title>Icon/Logos/veeqo-v</title>
    <desc>Created with Sketch.</desc>
    <defs>
        <polygon id="path-1" points="0.0231678487 0.23984879 0.0231678487 50.5599685 54.4378228 50.5599685 54.4378228 0.23984879 0.0231678487 0.23984879"></polygon>
    </defs>
    <g id="Elements" stroke="none" stroke-width="1" fill="none" fill-rule="evenodd">
        <g id="Icons" transform="translate(-432.000000, -186.000000)">
            <g id="Icon/Logos/veeqo-v" transform="translate(432.000000, 184.000000)">
                <g id="veeqo-v" stroke-width="1" fill-rule="evenodd" transform="translate(0.777778, 2.333333)">
                    <mask id="mask-2" fill="white">
                        <use xlink:href="#path-1"></use>
                    </mask>
                    <g id="Clip-2"></g>
                    <path d="M44.1173759,39.7228211 C52.0419385,31.6194799 51.8952088,18.6277226 43.793026,10.7043184 C35.687368,2.7770528 22.6975414,2.92725768 14.7749094,11.0305989 C11.9457289,13.9219464 10.1479039,17.4388258 9.37062254,21.1205831 C9.75173365,16.0024192 11.8685028,10.9850355 15.7367612,7.02989756 C24.4494169,-1.88161545 38.736643,-2.04185973 47.648156,6.6707959 C56.5581245,15.3842238 56.7210717,29.6718361 48.005327,38.5806462 C44.3324507,42.337699 39.6718519,44.5405753 34.8394247,45.1769188 C38.2505043,44.2521355 41.4665879,42.4315288 44.1173759,39.7228211" id="Fill-1" fill="#3C88BC" mask="url(#mask-2)"></path>
                    <path d="M17.9716864,38.7381875 C26.0873838,43.3099764 36.3727502,40.4340741 40.9426084,32.3156738 C45.5132388,24.1972734 42.6373365,13.9107486 34.5189362,9.34166273 C31.622569,7.70987392 28.4493459,7.02951143 25.3606856,7.19284476 C29.5034831,6.40938534 33.9358786,7.02603625 37.9022143,9.25478329 C46.8291726,14.2818203 49.9911978,25.5896612 44.9660914,34.51855 C39.9405989,43.4482112 28.6315997,46.6106225 19.7007801,41.58513 C15.9410244,39.4652719 13.2002679,36.2318125 11.6673286,32.5268873 C13.1292199,35.0417573 15.2564145,37.2114263 17.9716864,38.7381875" id="Fill-3" fill="#E17566" mask="url(#mask-2)"></path>
                    <polyline id="Fill-4" fill="#3D3D3D" mask="url(#mask-2)" points="0 14.1134673 11.512104 14.1134673 19.9413396 31.3607723 28.0624429 14.1134673 38.3416312 14.1134673 19.5304965 50.5831363 19.1181087 50.5831363 0 14.1134673"></polyline>
                </g>
                <rect id="Rectangle-3" x="0" y="0" width="56" height="56"></rect>
            </g>
        </g>
    </g>
</svg>